<svg width="129" height="30" viewBox="0 0 129 30" fill="none" xmlns="http://www.w3.org/2000/svg">
<path d="M0.6 0.999998H4.84L6.8 22.52H6.88L8.96 0.999998H13.76L15.84 22.52H15.92L17.88 0.999998H21.68L18.84 29H13.36L11.36 10.12H11.28L9.28 29H3.44L0.6 0.999998ZM30.2656 29.4C28.1056 29.4 26.4523 28.7867 25.3056 27.56C24.159 26.3333 23.5856 24.6 23.5856 22.36V7.64C23.5856 5.4 24.159 3.66667 25.3056 2.44C26.4523 1.21333 28.1056 0.599998 30.2656 0.599998C32.4256 0.599998 34.079 1.21333 35.2256 2.44C36.3723 3.66667 36.9456 5.4 36.9456 7.64V22.36C36.9456 24.6 36.3723 26.3333 35.2256 27.56C34.079 28.7867 32.4256 29.4 30.2656 29.4ZM30.2656 25.4C31.7856 25.4 32.5456 24.48 32.5456 22.64V7.36C32.5456 5.52 31.7856 4.6 30.2656 4.6C28.7456 4.6 27.9856 5.52 27.9856 7.36V22.64C27.9856 24.48 28.7456 25.4 30.2656 25.4ZM39.9213 0.999998H46.4413C48.7079 0.999998 50.3613 1.53333 51.4013 2.6C52.4413 3.64 52.9613 5.25333 52.9613 7.44V9.16C52.9613 12.0667 52.0013 13.9067 50.0813 14.68V14.76C51.1479 15.08 51.8946 15.7333 52.3213 16.72C52.7746 17.7067 53.0013 19.0267 53.0013 20.68V25.6C53.0013 26.4 53.0279 27.0533 53.0813 27.56C53.1346 28.04 53.2679 28.52 53.4813 29H49.0013C48.8413 28.5467 48.7346 28.12 48.6813 27.72C48.6279 27.32 48.6013 26.6 48.6013 25.56V20.44C48.6013 19.16 48.3879 18.2667 47.9613 17.76C47.5613 17.2533 46.8546 17 45.8413 17H44.3213V29H39.9213V0.999998ZM45.9213 13C46.8013 13 47.4546 12.7733 47.8813 12.32C48.3346 11.8667 48.5612 11.1067 48.5612 10.04V7.88C48.5612 6.86667 48.3746 6.13333 48.0013 5.68C47.6546 5.22667 47.0946 5 46.3213 5H44.3213V13H45.9213ZM56.0541 0.999998H60.4541V25H67.6941V29H56.0541V0.999998ZM73.3603 0.999998H79.3203L83.8803 29H79.4803L78.6803 23.44V23.52H73.6803L72.8803 29H68.8003L73.3603 0.999998ZM78.1603 19.72L76.2003 5.88H76.1203L74.2003 19.72H78.1603ZM86.015 0.999998H92.655C94.9217 0.999998 96.575 1.53333 97.615 2.6C98.655 3.64 99.175 5.25333 99.175 7.44V8.56C99.175 10 98.935 11.1733 98.455 12.08C98.0017 12.9867 97.295 13.64 96.335 14.04V14.12C98.5217 14.8667 99.615 16.8133 99.615 19.96V22.36C99.615 24.52 99.0417 26.1733 97.895 27.32C96.775 28.44 95.1217 29 92.935 29H86.015V0.999998ZM92.135 12.4C93.015 12.4 93.6683 12.1733 94.095 11.72C94.5483 11.2667 94.775 10.5067 94.775 9.44V7.88C94.775 6.86667 94.5883 6.13333 94.215 5.68C93.8683 5.22667 93.3083 5 92.535 5H90.415V12.4H92.135ZM92.935 25C93.7083 25 94.2817 24.8 94.655 24.4C95.0283 23.9733 95.215 23.2533 95.215 22.24V19.8C95.215 18.52 94.9883 17.64 94.535 17.16C94.1083 16.6533 93.3883 16.4 92.375 16.4H90.415V25H92.935ZM102.187 0.999998H114.187V5H106.587V12.4H112.627V16.4H106.587V25H114.187V29H102.187V0.999998ZM116.718 0.999998H121.118V25H128.358V29H116.718V0.999998Z" fill="#1E1E1E"/>
</svg>
